<?xml version="1.0" encoding="UTF-8" standalone="no"?>
<svg
   class="ionicon"
   viewBox="0 0 512 512"
   version="1.1"
   id="svg1"
   sodipodi:docname="arrow-forward-circle.svg"
   inkscape:version="1.3.2 (091e20e, 2023-11-25, custom)"
   xmlns:inkscape="http://www.inkscape.org/namespaces/inkscape"
   xmlns:sodipodi="http://sodipodi.sourceforge.net/DTD/sodipodi-0.dtd"
   xmlns="http://www.w3.org/2000/svg"
   xmlns:svg="http://www.w3.org/2000/svg">
  <defs
     id="defs1" />
  <sodipodi:namedview
     id="namedview1"
     pagecolor="#ffffff"
     bordercolor="#000000"
     borderopacity="0.25"
     inkscape:showpageshadow="2"
     inkscape:pageopacity="0.0"
     inkscape:pagecheckerboard="0"
     inkscape:deskcolor="#d1d1d1"
     inkscape:zoom="1.4142136"
     inkscape:cx="181.72644"
     inkscape:cy="267.63992"
     inkscape:window-width="1920"
     inkscape:window-height="1017"
     inkscape:window-x="-8"
     inkscape:window-y="-8"
     inkscape:window-maximized="1"
     inkscape:current-layer="svg1" />
  <path
     d="M464 256c0-114.87-93.13-208-208-208S48 141.13 48 256s93.13 208 208 208 208-93.13 208-208zm-212.65 91.36a16 16 0 01-.09-22.63L303.58 272H170a16 16 0 010-32h133.58l-52.32-52.73A16 16 0 11274 164.73l79.39 80a16 16 0 010 22.54l-79.39 80a16 16 0 01-22.65.09z"
     id="path1"
     style="fill:#da6623;fill-opacity:1" />
  <path
     style="fill:#da6623;stroke-width:0.62363;fill-opacity:1"
     d="m 241.96833,463.25219 c -43.7193,-3.62503 -80.0656,-17.67701 -114.43605,-44.24252 -8.63306,-6.67265 -25.937,-23.72311 -32.912417,-32.43031 C 57.51481,340.26223 41.933955,282.46163 50.823454,224.10696 c 5.363401,-35.20777 20.288267,-69.09322 43.085726,-97.82194 6.77559,-8.53841 23.3816,-25.15954 32.06402,-32.093217 36.06451,-28.800683 78.36942,-44.33015 124.41413,-45.670466 49.30136,-1.435113 96.48253,14.476121 135.92722,45.839676 7.65698,6.088277 25.23616,23.667457 31.32444,31.324437 19.72035,24.8015 33.32291,52.56402 40.36801,82.3902 4.13178,17.49237 5.31752,28.17881 5.31752,47.92435 0,19.77409 -1.1845,30.42796 -5.33748,48.00787 -7.04722,29.83138 -20.89225,57.98081 -40.61202,82.57149 -6.37478,7.94938 -23.24929,24.81566 -31.06047,31.04533 -37.97059,30.28272 -84.11203,46.39267 -131.56181,45.93384 -5.65944,-0.0547 -11.41242,-0.19258 -12.78441,-0.30634 z m 27.5166,-112.40831 c 1.84664,-0.83856 14.13773,-12.79183 43.60684,-42.40827 22.56949,-22.68232 41.64243,-42.14582 42.38433,-43.25223 3.77113,-5.62397 3.77113,-12.74279 0,-18.36676 -0.7419,-1.10641 -19.81484,-20.56991 -42.38433,-43.25223 -29.46911,-29.61644 -41.7602,-41.56971 -43.60684,-42.40827 -3.63646,-1.65135 -10.36656,-1.60836 -13.87202,0.0886 -3.10607,1.50362 -6.83215,5.41495 -8.13971,8.54436 -0.50712,1.21372 -0.93209,3.94802 -0.94436,6.07624 -0.042,7.27889 -0.10039,7.20599 29.5929,36.94021 l 26.92676,26.96388 -68.89331,0.16402 c -76.72594,0.18266 -70.7498,-0.16606 -75.44714,4.40242 -8.03136,7.81102 -5.81886,21.40585 4.30403,26.44644 2.11773,1.05451 6.29384,1.1299 71.14311,1.28428 l 68.89331,0.16402 -26.92676,26.96388 c -21.70866,21.73858 -27.18726,27.55559 -28.271,30.0173 -1.81543,4.12378 -1.79513,9.98942 0.0478,13.79631 1.56803,3.23912 6.20055,7.55231 8.97677,8.35799 3.45847,1.00368 9.83064,0.7398 12.60967,-0.52219 z"
     id="path2" />
  <path
     style="fill:#da6623;fill-opacity:1;stroke-width:0.00487211"
     d="m 260.05116,351.89466 c -0.0255,-0.002 -0.0989,-0.009 -0.16322,-0.0142 -1.17001,-0.10086 -2.28709,-0.29562 -3.07467,-0.53606 -1.84518,-0.56329 -4.6304,-2.71418 -6.80498,-5.25516 l -0.10086,-0.11785 v -0.0758 -0.0758 h 0.0378 c 0.0308,0 0.0388,0.002 0.0431,0.009 0.009,0.0138 0.19667,0.24875 0.2817,0.35195 0.52983,0.64302 1.15514,1.28876 1.78372,1.84199 1.46052,1.28545 3.13615,2.29057 4.95959,2.97499 0.96978,0.364 2.05748,0.65318 3.04872,0.81054 l 0.0378,0.006 v 0.0432 c 0,0.0238 -5.5e-4,0.0429 -10e-4,0.0425 -6.7e-4,-3.6e-4 -0.022,-0.003 -0.0475,-0.005 z"
     id="path3" />
  <path
     style="fill:#da6623;fill-opacity:1;stroke-width:0.0068902"
     d="m 249.80765,345.84929 c -0.68851,-0.82992 -1.26742,-1.66003 -1.68119,-2.41071 -0.71923,-1.30483 -1.24472,-3.04743 -1.47107,-4.87826 -0.01,-0.0777 -0.0192,-0.15288 -0.0214,-0.16709 l -0.004,-0.0258 h 0.0795 0.0795 l 0.004,0.0224 c 0.002,0.0123 0.0176,0.10792 0.0347,0.21244 0.3444,2.11038 1.12833,4.16568 2.27964,5.97669 0.24405,0.38388 0.51915,0.7787 0.78257,1.1231 l 0.0843,0.11024 -0.0347,0.002 -0.0347,0.002 -0.002,0.0725 -0.002,0.0725 z"
     id="path4" />
  <path
     style="fill:#da6623;fill-opacity:1;stroke-width:0.0068902"
     d="m 249.82102,345.85917 c -0.72784,-0.88285 -1.2858,-1.68421 -1.70458,-2.44815 -0.59975,-1.09407 -1.07162,-2.52074 -1.3366,-4.04111 -0.0479,-0.27493 -0.086,-0.53357 -0.13329,-0.90455 l -0.0125,-0.0984 0.0759,0.002 0.0759,0.002 0.0222,0.13435 c 0.0631,0.38171 0.12439,0.7031 0.18911,0.99125 0.50401,2.24391 1.47897,4.34581 2.86324,6.17284 l 0.10572,0.13953 -0.0224,1e-4 c -0.0375,1.8e-4 -0.0414,0.007 -0.0459,0.0755 l -0.004,0.0631 z"
     id="path5" />
  <path
     style="fill:#da6623;fill-opacity:1;stroke-width:0.0068902"
     d="m 241.00886,343.00105 v -4.63366 h 2.80715 2.80716 l 0.004,0.0258 c 0.002,0.0142 0.0134,0.1018 0.025,0.19465 0.22276,1.78371 0.73001,3.48551 1.42192,4.77049 0.48655,0.90359 1.20387,1.90684 2.08458,2.91553 0.3516,0.40269 0.63557,0.70713 1.02991,1.10415 l 0.25493,0.25666 h -5.21731 -5.21732 z"
     id="path6" />
  <path
     style="fill:#da6623;fill-opacity:1;stroke-width:0.0068902"
     d=""
     id="path7" />
  <path
     style="fill:#da6623;fill-opacity:1;stroke-width:0.0068902"
     d="m 249.78968,345.82132 c -0.86393,-1.04736 -1.52446,-2.04727 -1.94226,-2.9402 -0.468,-1.00022 -0.83371,-2.19465 -1.05733,-3.45329 -0.0528,-0.29738 -0.0912,-0.55323 -0.14068,-0.93835 l -0.0157,-0.12252 0.0763,0.002 0.0763,0.002 0.0224,0.1378 c 0.17945,1.10153 0.44223,2.0975 0.81848,3.10221 0.54268,1.44913 1.2769,2.78683 2.21071,4.02774 l 0.12809,0.17022 -0.0223,1e-4 c -0.0367,1.8e-4 -0.0404,0.006 -0.0454,0.0752 l -0.005,0.0634 z"
     id="path8" />
  <path
     style="fill:#da6623;fill-opacity:1;stroke-width:0.0068902"
     d="m 249.75882,345.78403 c -0.79248,-0.96716 -1.39151,-1.8583 -1.80358,-2.68307 -0.63053,-1.26204 -1.07476,-2.81274 -1.29287,-4.51308 -0.0134,-0.10422 -0.0259,-0.19646 -0.0278,-0.20499 -0.004,-0.0154 -0.003,-0.0155 0.0746,-0.0155 h 0.0781 l 0.0157,0.10163 c 0.0984,0.63652 0.25811,1.35653 0.43914,1.97921 0.54872,1.88742 1.40856,3.60744 2.59108,5.18315 l 0.13315,0.17743 -0.0225,1e-4 c -0.0361,1.7e-4 -0.0397,0.006 -0.0451,0.0755 l -0.005,0.0643 z"
     id="path9" />
  <path
     style="fill:#ffffff;fill-opacity:1;stroke-width:0.00390625"
     d="m 246.62914,338.35645 c -0.005,-0.0219 -0.0362,-0.33167 -0.0508,-0.49903 -0.0546,-0.62581 -0.0753,-1.15474 -0.0713,-1.82422 0.002,-0.36029 0.004,-0.44955 0.0164,-0.73437 0.019,-0.44228 0.0599,-0.96675 0.10604,-1.36231 l 0.002,-0.0205 h 0.0602 0.0602 l -0.002,0.0127 c -0.007,0.0431 -0.032,0.25363 -0.0487,0.41309 -0.039,0.37237 -0.0627,0.72145 -0.0791,1.16797 -0.006,0.17313 -0.006,0.79976 -5e-5,0.97851 0.0191,0.5366 0.0546,0.99554 0.11434,1.47852 0.015,0.12146 0.0482,0.36514 0.0528,0.38769 l 0.002,0.0107 h -0.0803 c -0.0801,0 -0.0803,-2e-5 -0.0822,-0.009 z"
     id="path10" />
  <path
     style="fill:#ffffff;fill-opacity:1;stroke-width:0.25"
     d="m 259.24047,351.50715 c -4.76075,-1.0364 -8.88029,-4.41032 -10.99703,-9.00663 -1.07598,-2.33639 -1.45175,-4.07034 -1.43575,-6.625 0.0167,-2.65946 0.56869,-4.8099 1.8932,-7.375 0.99647,-1.92982 1.97599,-2.95059 27.91591,-29.09131 14.78576,-14.90021 26.91742,-27.181 26.95924,-27.29063 0.0418,-0.10962 -29.99567,-0.26197 -66.75,-0.33855 -36.75432,-0.0766 -67.90989,-0.23032 -69.23458,-0.34165 -2.12667,-0.17874 -2.66695,-0.33047 -4.61654,-1.29653 -1.71121,-0.84794 -2.63708,-1.52319 -4.11507,-3.00118 -6.27348,-6.27348 -6.27719,-16.02625 -0.008,-22.26179 2.52746,-2.51409 4.73414,-3.6831 7.57958,-4.01538 4.81678,-0.56247 22.37935,-0.7271 78.13153,-0.73238 32.48437,-0.003 59.0625,-0.0749 59.0625,-0.15953 0,-0.0847 -11.90028,-12.15028 -26.44506,-26.8125 -14.54479,-14.66221 -26.84967,-27.22107 -27.3442,-27.90857 -2.1144,-2.9395 -2.98347,-5.63397 -2.98347,-9.25 0,-2.74457 0.47263,-4.79315 1.63881,-7.10335 3.25948,-6.45702 10.4084,-9.89667 17.46256,-8.40199 3.11036,0.65905 4.93792,1.77326 8.70532,5.30742 3.08408,2.89315 69.5462,69.77444 77.34639,77.83423 2.66496,2.75365 3.42028,3.70374 4.16472,5.23869 2.24565,4.63027 2.2439,9.57421 -0.005,14.25 -1.11734,2.32308 0.93332,0.19985 -40.80238,42.24642 -17.81303,17.94572 -32.83178,33.12332 -33.375,33.72801 -0.54321,0.60469 -3.18141,3.17255 -5.86266,5.70637 -4.06661,3.84299 -5.17288,4.75051 -6.67136,5.47275 -3.1398,1.51333 -6.85228,1.95973 -10.21317,1.22808 z"
     id="path11" />
</svg>
